<?xml version="1.0" encoding="UTF-8" standalone="no"?>
<!-- Created with Inkscape (http://www.inkscape.org/) -->

<svg
   xmlns:dc="http://purl.org/dc/elements/1.1/"
   xmlns:cc="http://creativecommons.org/ns#"
   xmlns:rdf="http://www.w3.org/1999/02/22-rdf-syntax-ns#"
   xmlns:svg="http://www.w3.org/2000/svg"
   xmlns="http://www.w3.org/2000/svg"
   xmlns:sodipodi="http://sodipodi.sourceforge.net/DTD/sodipodi-0.dtd"
   xmlns:inkscape="http://www.inkscape.org/namespaces/inkscape"
   width="239.99983mm"
   height="239.99974mm"
   viewBox="0 0 239.99983 239.99974"
   version="1.1"
   id="svg8"
   inkscape:version="0.92.2 (5c3e80d, 2017-08-06)"
   sodipodi:docname="example_logo.svg"
   inkscape:export-filename="/home/nathan/Programming/Web/favocon.png"
   inkscape:export-xdpi="3.3900001"
   inkscape:export-ydpi="3.3900001">
  <defs
     id="defs2" />
  <sodipodi:namedview
     id="base"
     pagecolor="#ffffff"
     bordercolor="#666666"
     borderopacity="1.0"
     inkscape:pageopacity="0.0"
     inkscape:pageshadow="2"
     inkscape:zoom="0.35"
     inkscape:cx="330.16196"
     inkscape:cy="535.05695"
     inkscape:document-units="mm"
     inkscape:current-layer="layer1"
     showgrid="false"
     fit-margin-top="0"
     fit-margin-left="0"
     fit-margin-right="0"
     fit-margin-bottom="0"
     inkscape:window-width="1366"
     inkscape:window-height="713"
     inkscape:window-x="0"
     inkscape:window-y="0"
     inkscape:window-maximized="1" />
  <metadata
     id="metadata5">
    <rdf:RDF>
      <cc:Work
         rdf:about="">
        <dc:format>image/svg+xml</dc:format>
        <dc:type
           rdf:resource="http://purl.org/dc/dcmitype/StillImage" />
        <dc:title></dc:title>
      </cc:Work>
    </rdf:RDF>
  </metadata>
  <g
     inkscape:label="Layer 1"
     inkscape:groupmode="layer"
     id="layer1"
     transform="translate(14.999909,-28.500126)">
    <path
       style="opacity:1;fill:#000000;fill-opacity:1;fill-rule:nonzero;stroke:none;stroke-width:0.12962963;stroke-linecap:butt;stroke-linejoin:miter;stroke-miterlimit:4;stroke-dasharray:none;stroke-opacity:1"
       d="m 95.000093,28.500126 v 20.605459 a 100,100 0 0 0 -1.151866,0.174151 100,100 0 0 0 -5.921086,0.790649 100,100 0 0 0 -2.026751,0.411345 100,100 0 0 0 -1.762681,0.368451 100,100 0 0 0 -5.991883,1.418004 100,100 0 0 0 -2.005563,0.62477 100,100 0 0 0 -1.515668,0.47542 100,100 0 0 0 -6.417697,2.2102 100,100 0 0 0 -0.08061,0.0331 100,100 0 0 0 -4.215247,1.72083 L 53.659983,39.576968 36.340109,49.576874 46.642838,67.421785 a 100,100 0 0 0 -0.910021,0.72605 100,100 0 0 0 -4.730459,3.6437 100,100 0 0 0 -1.560628,1.37873 100,100 0 0 0 -1.326018,1.18546 100,100 0 0 0 -4.489132,4.2323 100,100 0 0 0 -1.424718,1.54461 100,100 0 0 0 -1.071253,1.16633 100,100 0 0 0 -4.454509,5.12476 100,100 0 0 0 -0.05426,0.0698 100,100 0 0 0 -2.789494,3.59771 L 6.076841,79.840145 -3.9230652,97.160015 13.92184,107.46274 a 100,100 0 0 0 -0.425814,1.08727 100,100 0 0 0 -2.274279,5.51801 100,100 0 0 0 -0.660425,1.97042 100,100 0 0 0 -0.557589,1.69706 100,100 0 0 0 -1.7699178,5.90352 100,100 0 0 0 -0.4630209,2.05465 100,100 0 0 0 -0.3446817,1.54512 100,100 0 0 0 -1.2944946,6.66058 100,100 0 0 0 -0.012919,0.0956 100,100 0 0 0 -0.6164999,4.50515 H -14.999909 v 19.99982 H 5.6055519 a 100,100 0 0 0 0.1741496,1.15186 100,100 0 0 0 0.7906494,5.92109 100,100 0 0 0 0.4113444,2.02675 100,100 0 0 0 0.3684529,1.76268 100,100 0 0 0 1.4180015,5.99188 100,100 0 0 0 0.624768,2.00557 100,100 0 0 0 0.4754232,1.51566 100,100 0 0 0 2.2102011,6.4177 100,100 0 0 0 0.03307,0.0806 100,100 0 0 0 1.720825,4.21524 l -17.7555052,10.25106 9.9999062,17.31988 17.844905,-10.30274 a 100,100 0 0 0 0.726571,0.91054 100,100 0 0 0 3.643188,4.73046 100,100 0 0 0 1.37511,1.55598 100,100 0 0 0 1.194243,1.33531 100,100 0 0 0 4.225581,4.4819 100,100 0 0 0 1.549776,1.42989 100,100 0 0 0 1.162719,1.06815 100,100 0 0 0 5.124752,4.45452 100,100 0 0 0 0.06977,0.0542 100,100 0 0 0 3.597712,2.7895 l -10.251054,17.7555 17.319874,9.9999 10.302729,-17.8449 a 100,100 0 0 0 1.087789,0.42635 100,100 0 0 0 5.516976,2.27325 100,100 0 0 0 1.970939,0.66093 100,100 0 0 0 1.697053,0.55758 100,100 0 0 0 5.903516,1.76993 100,100 0 0 0 2.054656,0.46302 100,100 0 0 0 1.545124,0.34467 100,100 0 0 0 6.660576,1.29451 100,100 0 0 0 0.0956,0.0129 100,100 0 0 0 4.50515,0.6165 v 20.50211 h 19.999817 v -20.60545 a 100,100 0 0 0 1.15186,-0.17415 100,100 0 0 0 5.92109,-0.79066 100,100 0 0 0 2.02675,-0.41134 100,100 0 0 0 1.76268,-0.36846 100,100 0 0 0 5.99189,-1.41801 100,100 0 0 0 2.00556,-0.62476 100,100 0 0 0 1.51567,-0.47543 100,100 0 0 0 6.41666,-2.20967 100,100 0 0 0 0.0832,-0.0341 100,100 0 0 0 4.21318,-1.72033 l 10.25157,17.7555 17.31987,-9.9999 -10.30273,-17.8449 a 100,100 0 0 0 0.91054,-0.72657 100,100 0 0 0 4.73046,-3.64318 100,100 0 0 0 1.55598,-1.37512 100,100 0 0 0 1.33532,-1.19425 100,100 0 0 0 4.48189,-4.22558 100,100 0 0 0 1.42989,-1.54977 100,100 0 0 0 1.06815,-1.16271 100,100 0 0 0 4.45451,-5.12476 100,100 0 0 0 0.0543,-0.0698 100,100 0 0 0 2.7895,-3.59771 l 17.7555,10.25106 9.99991,-17.31988 -17.84491,-10.30273 a 100,100 0 0 0 0.42581,-1.08728 100,100 0 0 0 2.27428,-5.51801 100,100 0 0 0 0.66043,-1.97042 100,100 0 0 0 0.55759,-1.69705 100,100 0 0 0 1.76991,-5.90352 100,100 0 0 0 0.46303,-2.05465 100,100 0 0 0 0.34468,-1.54513 100,100 0 0 0 1.29449,-6.66057 100,100 0 0 0 0.0129,-0.0956 100,100 0 0 0 0.6165,-4.50515 h 20.50211 v -19.99982 h -20.60546 a 100,100 0 0 0 -0.17415,-1.15186 100,100 0 0 0 -0.79065,-5.92109 100,100 0 0 0 -0.41134,-2.02675 100,100 0 0 0 -0.36846,-1.76268 100,100 0 0 0 -1.418,-5.99189 100,100 0 0 0 -0.62477,-2.00556 100,100 0 0 0 -0.47542,-1.51567 100,100 0 0 0 -2.2102,-6.41769 100,100 0 0 0 -0.0331,-0.0806 100,100 0 0 0 -1.72083,-4.21525 l 17.75551,-10.251045 -9.99991,-17.31987 -17.84491,10.30273 a 100,100 0 0 0 -0.72657,-0.91054 100,100 0 0 0 -3.64318,-4.73046 100,100 0 0 0 -1.37512,-1.55598 100,100 0 0 0 -1.19424,-1.33532 100,100 0 0 0 -4.22558,-4.48189 100,100 0 0 0 -1.54977,-1.42989 100,100 0 0 0 -1.16272,-1.06815 100,100 0 0 0 -5.12475,-4.45451 100,100 0 0 0 -0.0698,-0.0543 100,100 0 0 0 -3.59771,-2.78949 l 10.25109,-17.755381 -17.31987,-9.999906 -10.30273,17.844907 a 100,100 0 0 0 -1.08727,-0.42581 100,100 0 0 0 -5.51801,-2.27428 100,100 0 0 0 -1.97042,-0.66043 100,100 0 0 0 -1.69706,-0.55759 100,100 0 0 0 -5.90351,-1.76992 100,100 0 0 0 -2.05466,-0.463016 100,100 0 0 0 -1.54512,-0.344684 100,100 0 0 0 -6.66058,-1.294495 100,100 0 0 0 -0.0956,-0.01292 100,100 0 0 0 -4.50515,-0.6165 V 28.500126 Z M 105,73.499965 A 75,75 0 0 1 180.00007,148.50003 75,75 0 0 1 105,223.50009 75,75 0 0 1 29.999928,148.50003 75,75 0 0 1 105,73.499965 Z"
       id="path815"
       inkscape:connector-curvature="0" />
    <text
       xml:space="preserve"
       style="font-style:normal;font-weight:normal;font-size:10.58333302px;line-height:500;font-family:sans-serif;letter-spacing:0px;word-spacing:0px;fill:#000000;fill-opacity:1;stroke:none;stroke-width:0.26458332"
       x="57.452377"
       y="161.68452"
       id="text4567"><tspan
         sodipodi:role="line"
         id="tspan4565"
         x="57.452377"
         y="2810.2668"
         style="line-height:500;stroke-width:0.26458332" /></text>
    <text
       xml:space="preserve"
       style="font-style:normal;font-weight:normal;font-size:10.58333302px;line-height:529.16662598px;font-family:sans-serif;letter-spacing:0px;word-spacing:0px;fill:#000000;fill-opacity:1;stroke:none;stroke-width:0.26458332"
       x="68.035713"
       y="153.36905"
       id="text4571"><tspan
         sodipodi:role="line"
         id="tspan4569"
         x="68.035713"
         y="420.70154"
         style="line-height:529.16662598px;stroke-width:0.26458332" /></text>
    <text
       xml:space="preserve"
       style="font-style:normal;font-weight:normal;font-size:22.57777786px;line-height:50;font-family:sans-serif;letter-spacing:0px;word-spacing:0px;fill:#000000;fill-opacity:1;stroke:none;stroke-width:0.26458332"
       x="57.452377"
       y="157.1488"
       id="text4581"><tspan
         sodipodi:role="line"
         id="tspan4579"
         x="57.452377"
         y="727.45819"
         style="font-size:22.57777786px;stroke-width:0.26458332" /></text>
    <text
       xml:space="preserve"
       style="font-style:normal;font-weight:normal;font-size:10.58333302px;line-height:50;font-family:sans-serif;letter-spacing:0px;word-spacing:0px;fill:#000000;fill-opacity:1;stroke:none;stroke-width:0.26458332"
       x="49.136906"
       y="163.95238"
       id="text4585"><tspan
         sodipodi:role="line"
         id="tspan4583"
         x="49.136906"
         y="431.28488"
         style="font-size:19.75555611px;stroke-width:0.26458332" /></text>
    <text
       xml:space="preserve"
       style="font-style:normal;font-weight:normal;font-size:16.91717339px;line-height:50;font-family:sans-serif;letter-spacing:0px;word-spacing:0px;fill:#008000;fill-opacity:1;stroke:none;stroke-width:0.42292932"
       x="81.917305"
       y="197.96764"
       id="text4593"><tspan
         sodipodi:role="line"
         id="tspan4591"
         x="81.917305"
         y="197.96764"
         style="font-size:81.20243835px;fill:#008000;stroke-width:0.42292932">D</tspan></text>
    <text
       xml:space="preserve"
       style="font-style:normal;font-weight:normal;font-size:16.91717339px;line-height:50;font-family:sans-serif;letter-spacing:0px;word-spacing:0px;fill:#0000ff;fill-opacity:1;stroke:none;stroke-width:0.42292932"
       x="65.000137"
       y="159.29979"
       id="text4589"><tspan
         sodipodi:role="line"
         id="tspan4587"
         x="65.000137"
         y="159.29979"
         style="font-size:81.20243835px;fill:#0000ff;stroke-width:0.42292932">S</tspan></text>
  </g>
</svg>
