<?xml version="1.0" encoding="UTF-8"?>
<svg width="356.51" height="387.59" version="1.1" viewBox="0 0 356.51 387.59" xmlns="http://www.w3.org/2000/svg"><g transform="translate(-123.46 370.02)"><path d="m286.55-369.82v22.643c-1.7641-0.0791-3.5274-0.11884-5.2891-0.11914h-0.0273c-3.1806 1e-3 -6.3543 0.13074-9.5156 0.38867l-8.2539-20.445h-15.988l-26.375 9.2285 7.9434 23.07c-7.1182 3.5082-13.948 7.7362-20.42 12.641l-12.199-12.754h-10.992l-21.32 22.631 16.529 18.625c-6.4587 8.7302-12.092 18.308-16.805 28.574l-15.932-6.4336h-7.375l-10.877 33.467 21.961 9.7207c-2.8048 12.816-4.3166 26.07-4.5039 39.488l-23.643 1.5039 2.998 36.545 6.207-0.39844 0.0352 0.39844 17.236-1.0234c2.2364 13.323 5.7655 26.37 10.514 38.869l-20.42 13.004 15.777 32.027h8.6055l14.445-8.5508c6.156 9.5064 13.077 18.28 20.654 26.182l-13.859 21.672 25.43 20.27h13.059l10.441-14.439c6.6384 3.7628 13.477 6.9307 20.457 9.4766l-4.0371 25.314 28.307 5.6113h18.553l3.8017-23.876c3.0648 0.23067 11.326 0.51152 14.388 0.5386l3.9043 21.988h21.828l29.082-7.9297-4.832-23.084c3.581-1.3771 7.1063-2.9068 10.568-4.5859l3.8769 6.6758h26.703l22.432-19.723-11.277-17.873c8.5991-8.2622-2.5639-34.962 5.9243-18.41l30.49 2.6644 12.604-27.848-15.721-11.365c3.8219-10.569 6.638-21.605 8.4043-32.938l17.457 2.6113 2.2734-30.59-17.77-10.252c-0.4702-9.2753-1.6192-18.535-3.4356-27.688l16.863-5.0606-9.1387-30.113-18.239-8.7922-10.038 2.9535c-4.0175 1.1821-0.4943-16.126-3.552-21.161l13.508-12.494-17.242-25.23-21.096-1.9952-8.4982 9.9651c-7.6102-8.8117-0.55215-11.637-9.5541-18.607l8.2363-19.004-25.355-16.037h-24.264l-4.1484 10.344c-3.5465-1.2098-7.1236-2.2808-10.725-3.2109v-22.428l-29.643-4.6309zm6.3672 64.811c58.693 5.6498 106.45 63.876 109.75 133.82 3.2948 69.72-38.682 127.84-96.619 133.77-63.207-5.9383-114.5-64.056-118.06-133.77-3.571-69.942 42.081-128.17 104.92-133.82z" stroke="#000" stroke-linecap="round" stroke-linejoin="round" stroke-width=".3848"/></g><g transform="translate(-123.46 370.02)"><path d="m305.68-369.82v22.643a171.74 152.42 75.939 0 0-5.7148-0.11914 171.74 152.42 75.939 0 0-0.0312 0 171.74 152.42 75.939 0 0-27.268 2.7539l-9.209-22.811-28.498 9.2285 8.582 23.07a171.74 152.42 75.939 0 0-29.545 18.264l-17.578-18.377-23.039 22.631 17.861 18.625a171.74 152.42 75.939 0 0-19.67 31.701l-23.672-9.5606-11.754 33.467 23.73 9.7207a171.74 152.42 75.939 0 0-4.8672 39.488l-25.547 1.5039 3.2402 36.545 25.283-1.5a171.74 152.42 75.939 0 0 11.447 39.346l-22.064 13.004 17.047 32.027 21.91-12.971a171.74 152.42 75.939 0 0 25.316 30.602l-14.977 21.672 27.479 20.27 14.83-20.508a171.74 152.42 75.939 0 0 32.666 15.545l-4.3613 25.314 30.586 5.6113 4.5801-24.127a171.74 152.42 75.939 0 0 14.82 0.79493 171.74 152.42 75.939 0 0 20.021-1.4707l4.5 23.453 29.082-7.9297-4.832-23.084a171.74 152.42 75.939 0 0 29.836-15.934l11.312 18.023 22.432-19.723-11.277-17.873a171.74 152.42 75.939 0 0 20.363-27.346l16.051 11.6 12.604-27.848-15.721-11.365a171.74 152.42 75.939 0 0 8.4043-32.938l17.457 2.6113 2.2734-30.59-17.537-2.623a171.74 152.42 75.939 0 0-0.23242-7.6289 171.74 152.42 75.939 0 0-3.4356-27.688l16.863-5.0605-9.1387-30.113-16.344 4.9023a171.74 152.42 75.939 0 0-15.484-31.902l13.508-12.494-17.242-25.23-14.162 13.1a171.74 152.42 75.939 0 0-24.986-23.736l8.2363-19.004-25.355-16.037-8.2012 18.924a171.74 152.42 75.939 0 0-30.936-11.791v-22.428zm-3.4004 64.371a135.17 120.76 75.032 0 1 0.43555 0 135.17 120.76 75.032 0 1 128.44 134.26 135.17 120.76 75.032 0 1-114.73 134.26 135.17 120.76 75.032 0 1-128.44-134.26 135.17 120.76 75.032 0 1 114.29-134.26z" fill="#dbdbdb" stroke="#000" stroke-linecap="round" stroke-linejoin="round" stroke-width=".4"/></g><g transform="translate(-123.46 370.02)"><path d="m305.68-369.82v22.643c-1.9061-0.0791-3.8114-0.11884-5.7148-0.11914h-0.0312c-9.1913 2e-3 -18.317 0.92413-27.268 2.7539l-9.209-22.811-28.498 9.2285 8.582 23.07c-10.501 4.7893-20.412 10.916-29.545 18.264l-17.578-18.377-23.039 22.631 17.861 18.625c-7.6856 9.6135-14.287 20.252-19.67 31.701l-23.672-9.5606-11.754 33.467 23.73 9.7207c-3.0309 12.816-4.6646 26.07-4.8672 39.488l-25.547 1.5039 3.2402 36.545 25.283-1.5c2.4118 13.488 6.255 26.697 11.447 39.346l-22.064 13.004 17.047 32.027 21.91-12.971c7.372 11.213 15.87 21.485 25.316 30.602l-14.977 21.672 27.479 20.27 14.83-20.508c10.392 6.5106 21.351 11.726 32.666 15.545l-4.3613 25.314 30.586 5.6113 4.5801-24.127c4.9391 0.52939 9.885 0.79467 14.82 0.79493 6.7204 1.249e-4 13.409-0.49117 20.021-1.4707l4.5 23.453 29.082-7.9297-4.832-23.084c10.507-4.038 20.513-9.3817 29.836-15.934l11.312 18.023 22.432-19.723-11.277-17.873c7.691-8.2236 14.518-17.391 20.363-27.346l16.051 11.6 12.604-27.848-15.721-11.365c3.8219-10.569 6.638-21.605 8.4043-32.938l17.457 2.6113 2.2734-30.59-17.537-2.623c-0.0263-2.5414-0.10379-5.085-0.23242-7.6289-0.47019-9.2753-1.6192-18.535-3.4356-27.688l16.863-5.0605-9.1387-30.113-16.344 4.9023c-4.1796-11.141-9.3691-21.832-15.484-31.902l13.508-12.494-17.242-25.23-14.162 13.1c-7.6102-8.8117-15.984-16.767-24.986-23.736l8.2363-19.004-25.355-16.037-8.2012 18.924c-9.9722-5.1014-20.341-9.0534-30.936-11.791v-22.428z" fill="#dbdbdb" stroke="#000" stroke-linecap="round" stroke-linejoin="round" stroke-width=".4"/></g><g transform="translate(-123.46 370.02)"><path d="m265.56-306.69c-21.103 0-37.465 4.7385-49.09 14.217-11.624 9.4784-17.438 22.757-17.438 39.836 0 13.681 3.7564 24.144 11.268 31.387 7.6006 7.2429 20.298 12.563 38.092 15.961l24.68 4.8281c0.0135 3e-3 0.0256 5e-3 0.0391 8e-3 -2.867 3.8141-5.3723 7.9602-7.5117 12.441-5.1331 10.763-7.7507 22.657-7.8672 35.678-6.3168-1.1822-11.578-3.3177-15.777-6.4121-6.7064-5.0074-10.374-12.207-11-21.596h-35.141c1.073 18.778 7.8682 33.175 20.387 43.189 11.133 8.8265 26.202 13.718 45.184 14.695 0.45906 1.924 0.95048 3.8613 1.4961 5.8242 7.6169 27.403 20.592 47.199 38.926 59.385 18.31 12.099 39.345 14.847 63.105 8.2422 21.159-5.8814 36.739-16.378 46.738-31.488 9.9753-15.197 12.816-32.708 8.5195-52.533l-34.342 9.5449c1.9965 11.216 0.53088 20.731-4.3965 28.547-4.9274 7.8154-12.853 13.242-23.779 16.279-13.528 3.7602-25.554 1.4979-36.078-6.7871-10.425-8.3665-18.226-21.825-23.408-40.369 9.1877-2.5016 17.059-6.3203 23.594-11.475 12.787-10.104 19.182-24.097 19.182-41.98 0-8.1144-1.2999-15.165-3.877-21.168 0.53304-0.0215 1.0602-0.0337 1.582-0.0332 4.1048-0.02 7.6925 0.61857 10.762 1.9141 3.0692 1.2955 5.7484 2.6985 8.0371 4.2109 2.2646 1.4257 4.3455 3.3704 6.2441 5.832 1.8746 2.3749 3.2328 4.2381 4.0762 5.5918 0.93008 1.3296 1.902 2.9748 2.9141 4.9356l33.559-9.3281c-6.7289-18.495-18.047-31.323-33.957-38.484-15.91-7.1615-33.967-7.9346-54.172-2.3184-3.4972 0.97208-6.8381 2.0891-10.029 3.3418-3.6402-1.1254-7.5749-2.0984-11.816-2.9141l-27.496-5.3652c-12.966-2.5931-21.772-5.4544-26.422-8.584-4.6497-3.1296-6.9746-7.87-6.9746-14.219 0-6.7064 2.7271-12.027 8.1816-15.961 5.5439-3.9344 12.964-5.9024 22.264-5.9024 11.535 0 20.432 2.3702 26.691 7.1094 6.2593 4.6498 9.6588 11.49 10.195 20.521h33.799c0-6.617-0.80453-12.696-2.4141-18.24s-3.755-10.239-6.4375-14.084c-2.6825-3.845-5.946-7.2426-9.791-10.193-3.7556-2.9508-7.6461-5.2757-11.67-6.9746-4.0238-1.7884-8.4054-3.22-13.145-4.293-4.6497-1.073-9.0313-1.7888-13.145-2.1465-4.0238-0.44708-8.1372-0.66992-12.34-0.66992zm38.424 121.8c1.4736 2.907 2.2168 6.2972 2.2168 10.178 0 7.3323-3.1747 13.098-9.5234 17.301-0.81679 0.52919-1.6726 1.0233-2.5664 1.4844 0.27198-6.368 1.4006-12.228 3.4121-17.562 1.6518-4.3118 3.8129-8.1035 6.4609-11.4z" fill-opacity=".58182" stroke-width="1.2574"/></g><g transform="translate(-123.46 370.02)"><path d="m314.2-184.71c0-7.1535-2.5037-12.653-7.5111-16.498-5.0074-3.845-13.547-6.9299-25.618-9.2548l-24.679-4.8286c-17.794-3.3979-30.492-8.7183-38.092-15.961-7.5111-7.2429-11.267-17.705-11.267-31.386 0-17.079 5.8122-30.358 17.437-39.836 11.624-9.4783 27.988-14.218 49.091-14.218 4.2027 0 8.3159 0.22355 12.34 0.67063 4.1132 0.35768 8.4948 1.073 13.144 2.146 4.7392 1.073 9.1207 2.5037 13.144 4.2921 4.0238 1.699 7.9135 4.0238 11.669 6.9746 3.845 2.9508 7.1088 6.3487 9.7913 10.194 2.6826 3.845 4.8286 8.5394 6.4381 14.083s2.4143 11.624 2.4143 18.241h-33.8c-0.53651-9.0312-3.9344-15.872-10.194-20.522-6.2593-4.7392-15.156-7.1088-26.691-7.1088-9.2995 0-16.721 1.9672-22.265 5.9016-5.4545 3.9344-8.1818 9.2548-8.1818 15.961 0 6.3487 2.3249 11.088 6.9746 14.218 4.6498 3.1296 13.457 5.991 26.423 8.5842l27.496 5.3651c16.274 3.1296 28.122 8.5395 35.544 16.229 7.4217 7.69 11.133 18.42 11.133 32.191l-0.97786 3.9955-32.76 3.4979z" fill="#3d72ff"/><g transform="matrix(1.2195 -.33896 .33896 1.2195 -43.289 126.33)" fill="#43a83c" aria-label="C"><path d="m387.72-149.98q-0.53333-2.56-1.1733-4.3733-0.53333-1.8133-1.92-5.12-1.3867-3.4133-3.52-5.76-2.1333-2.4533-5.2267-4.9067-3.0933-2.4533-7.7867-3.7333-4.5867-1.28-10.347-1.28-16.96 0-26.667 13.12-9.6 13.12-9.6 36.267 0 22.933 9.28 35.84 9.3867 12.8 26.027 12.8 13.44 0 21.547-7.36 8.1067-7.36 9.3867-20.8h28.16q-1.3867 24-17.6 38.187-16.213 14.08-42.24 14.08-29.227 0-46.293-19.627-17.067-19.733-17.067-53.44 0-34.027 17.173-53.76 17.28-19.84 46.933-19.84 24.853 0 40.747 13.227 15.893 13.227 17.707 36.48z" fill="#43a83c"/></g><path d="m348.94-189.27c0 17.884-6.3934 31.878-19.18 41.982-12.697 10.015-30.402 15.022-53.114 15.022-22.444 0-39.925-4.9627-52.444-14.888-12.519-10.015-19.314-24.411-20.387-43.189h35.141c0.62592 9.3889 4.2921 16.587 10.998 21.595 6.7958 5.0074 16.364 7.5111 28.703 7.5111 10.998 0 19.672-2.0566 26.021-6.1699 6.3487-4.2027 9.523-9.9701 9.523-17.302z" fill="#3d72ff"/></g></svg>
