<?xml version="1.0" encoding="UTF-8"?>
<svg width="405.4" height="405.4" version="1.1" viewBox="0 0 405.4 405.4" xmlns="http://www.w3.org/2000/svg"><g transform="translate(26.487 12.952)"><path d="m167.33-3.4954c-6.9139 0.0074-23.761 0.091649-23.761 0.091649-17.364 4.3943 0-1.856e-4 -17.364 4.3943v43.078c-11.695 3.5278-22.939 8.4256-33.501 14.593l-13.345-35.104-17.364 4.3945c-23.302 15.217-43.09 35.296-58.026 58.88l30.907 30.907c-5.7932 10.399-10.393 21.429-13.711 32.875l-25.896-4.3945-17.364 4.3945c-2.9168 13.581-4.3874 27.437-4.387 41.332 2.43e-4 13.895 1.4715 27.751 4.389 41.332h41.783c3.0388 12.086 7.4939 23.765 13.271 34.79l-28.992 28.992c14.936 23.584 34.724 43.663 58.026 58.88l17.364-4.3945 9.9396-22.909c11.534 7.1364 23.94 12.731 36.907 16.643v37.622c13.578 2.9821 27.435 4.486 41.332 4.4859 13.897 9e-5 27.754-1.5038 41.332-4.4859l17.364-4.5236c-9.905-38.443 2.7573-46.278 22.115-47.166l24.729 24.729 17.364-4.3948c15.714-54.563 21.588-80.592 31.831-118.27h34.895l17.364-4.3944c-58.29-81.316-51.607-153.67-84.088-205.33l-17.364 4.3947-28.232 28.232c-35.902-13.271-35.979-15.883-35.979-55.191-13.578-2.9821-27.435-4.486-41.332-4.4859z"/></g><g transform="translate(26.487 12.952)"><path d="m184.69-7.8899c-13.828 0.01482-27.615 1.5187-41.125 4.4859l3.9e-4 43.078c-11.695 3.5278-22.939 8.4256-33.501 14.593l-30.709-30.709c-23.302 15.217-43.09 35.296-58.026 58.88l30.907 30.907c-5.7932 10.399-10.393 21.429-13.711 32.875h-43.26c-2.9168 13.581-4.3874 27.437-4.3871 41.332 2.437e-4 13.895 1.4715 27.751 4.389 41.332h41.783c3.0388 12.086 7.4939 23.765 13.271 34.79l-28.992 28.992c14.936 23.584 34.724 43.663 58.026 58.88l27.304-27.304c11.534 7.1364 23.94 12.731 36.907 16.643v37.622c13.578 2.9821 27.435 4.486 41.332 4.4859 13.897 9e-5 27.754-1.5036 41.332-4.4857l-2.7e-4 -35.717c13.822-3.4843 27.105-8.8587 39.48-15.974l24.729 24.728c23.302-15.217 43.09-35.296 58.026-58.88l-24.533-24.533c6.9659-12.311 12.248-25.513 15.702-39.25l34.895 6e-5c2.9174-13.581 4.3889-27.437 4.3892-41.332-2.5e-4 -13.895-1.4716-27.751-4.389-41.332h-36.371c-3.7877-13.07-9.2448-25.588-16.234-37.241l26.543-26.543c-14.936-23.584-34.724-43.663-58.026-58.88l-28.232 28.232c-11.371-6.1537-23.456-10.863-35.979-14.019v-41.172c-13.578-2.9821-27.435-4.486-41.332-4.4859z" fill="#dbdbdb"/></g><g transform="translate(-96.978 382.97)"><path d="m265.56-301.63c-21.103 0-37.465 4.7385-49.09 14.217-11.624 9.4784-17.438 22.757-17.438 39.836 0 13.681 3.7564 24.144 11.268 31.387 7.6006 7.2429 20.298 12.563 38.092 15.961l24.68 4.8281c0.0135 3e-3 0.0256 5e-3 0.0391 8e-3 -2.867 3.8141-5.3723 7.9602-7.5117 12.441-5.1331 10.763-7.7507 22.657-7.8672 35.678-6.3168-1.1822-11.578-3.3177-15.777-6.4121-6.7064-5.0074-10.374-12.207-11-21.596h-35.141c1.073 18.778 7.8682 33.175 20.387 43.189 11.133 8.8265 26.202 13.718 45.184 14.695 0.45906 1.924 0.95048 3.8613 1.4961 5.8242 7.6169 27.403 20.592 47.199 38.926 59.385 18.31 12.099 39.345 14.847 63.105 8.2422 21.159-5.8814 36.739-16.378 46.738-31.488 9.9753-15.197 12.816-32.708 8.5195-52.533l-34.342 9.5449c1.9965 11.216 0.53088 20.731-4.3965 28.547-4.9274 7.8154-12.853 13.242-23.779 16.279-13.528 3.7602-25.554 1.4979-36.078-6.7871-10.425-8.3665-18.226-21.825-23.408-40.369 9.1877-2.5016 17.059-6.3203 23.594-11.475 12.787-10.104 19.182-24.097 19.182-41.98 0-8.1144-1.2999-15.165-3.877-21.168 0.53304-0.0215 1.0602-0.0337 1.582-0.0332 4.1048-0.02 7.6925 0.61857 10.762 1.9141 3.0692 1.2955 5.7484 2.6985 8.0371 4.2109 2.2646 1.4257 4.3455 3.3704 6.2441 5.832 1.8746 2.3749 3.2328 4.2381 4.0762 5.5918 0.93008 1.3296 1.902 2.9748 2.9141 4.9356l33.559-9.3281c-6.7289-18.495-18.047-31.323-33.957-38.484-15.91-7.1615-33.967-7.9346-54.172-2.3184-3.4972 0.97208-6.8381 2.0891-10.029 3.3418-3.6402-1.1254-7.5749-2.0984-11.816-2.9141l-27.496-5.3652c-12.966-2.5931-21.772-5.4544-26.422-8.584-4.6497-3.1296-6.9746-7.87-6.9746-14.219 0-6.7064 2.7271-12.027 8.1816-15.961 5.5439-3.9344 12.964-5.9024 22.264-5.9024 11.535 0 20.432 2.3702 26.691 7.1094 6.2593 4.6498 9.6588 11.49 10.195 20.521h33.799c0-6.617-0.80453-12.696-2.4141-18.24s-3.755-10.239-6.4375-14.084c-2.6825-3.845-5.946-7.2426-9.791-10.193-3.7556-2.9508-7.6461-5.2757-11.67-6.9746-4.0238-1.7884-8.4054-3.22-13.145-4.293-4.6497-1.073-9.0313-1.7888-13.145-2.1465-4.0238-0.44708-8.1372-0.66992-12.34-0.66992zm38.424 121.8c1.4736 2.907 2.2168 6.2972 2.2168 10.178 0 7.3323-3.1747 13.098-9.5234 17.301-0.81679 0.52919-1.6726 1.0233-2.5664 1.4844 0.27198-6.368 1.4006-12.228 3.4121-17.562 1.6518-4.3118 3.8129-8.1035 6.4609-11.4z" fill-opacity=".58182" stroke-width="1.2574"/></g><g transform="translate(-96.978 382.97)"><path d="m314.2-179.65c0-7.1535-2.5037-12.653-7.5111-16.498-5.0074-3.845-13.547-6.9299-25.618-9.2548l-24.679-4.8286c-17.794-3.3979-30.492-8.7183-38.092-15.961-7.5111-7.2429-11.267-17.705-11.267-31.386 0-17.079 5.8122-30.358 17.437-39.836 11.624-9.4783 27.988-14.218 49.091-14.218 4.2027 0 8.3159 0.22355 12.34 0.67063 4.1132 0.35768 8.4948 1.073 13.144 2.146 4.7392 1.073 9.1207 2.5037 13.144 4.2921 4.0238 1.699 7.9135 4.0238 11.669 6.9746 3.845 2.9508 7.1088 6.3487 9.7913 10.194 2.6826 3.845 4.8286 8.5394 6.4381 14.083s2.4143 11.624 2.4143 18.241h-33.8c-0.53651-9.0312-3.9344-15.872-10.194-20.522-6.2593-4.7392-15.156-7.1088-26.691-7.1088-9.2995 0-16.721 1.9672-22.265 5.9016-5.4545 3.9344-8.1818 9.2548-8.1818 15.961 0 6.3487 2.3249 11.088 6.9746 14.218 4.6498 3.1296 13.457 5.991 26.423 8.5842l27.496 5.3651c16.274 3.1296 28.122 8.5395 35.544 16.229 7.4217 7.69 11.133 18.42 11.133 32.191l-0.97786 3.9955-32.76 3.4979z" fill="#3d72ff"/><g transform="matrix(1.2195 -.33896 .33896 1.2195 -43.289 131.4)" fill="#43a83c" aria-label="C"><path d="m387.72-149.98q-0.53333-2.56-1.1733-4.3733-0.53333-1.8133-1.92-5.12-1.3867-3.4133-3.52-5.76-2.1333-2.4533-5.2267-4.9067-3.0933-2.4533-7.7867-3.7333-4.5867-1.28-10.347-1.28-16.96 0-26.667 13.12-9.6 13.12-9.6 36.267 0 22.933 9.28 35.84 9.3867 12.8 26.027 12.8 13.44 0 21.547-7.36 8.1067-7.36 9.3867-20.8h28.16q-1.3867 24-17.6 38.187-16.213 14.08-42.24 14.08-29.227 0-46.293-19.627-17.067-19.733-17.067-53.44 0-34.027 17.173-53.76 17.28-19.84 46.933-19.84 24.853 0 40.747 13.227 15.893 13.227 17.707 36.48z" fill="#43a83c"/></g><path d="m348.94-184.21c0 17.884-6.3934 31.878-19.18 41.982-12.697 10.015-30.402 15.022-53.114 15.022-22.444 0-39.925-4.9627-52.444-14.888-12.519-10.015-19.314-24.411-20.387-43.189h35.141c0.62592 9.3889 4.2921 16.587 10.998 21.595 6.7958 5.0074 16.364 7.5111 28.703 7.5111 10.998 0 19.672-2.0566 26.021-6.1699 6.3487-4.2027 9.523-9.9701 9.523-17.302z" fill="#3d72ff"/></g></svg>
