<?xml version="1.0" encoding="UTF-8" standalone="no"?>
<svg
   xmlns:dc="http://purl.org/dc/elements/1.1/"
   xmlns:cc="http://creativecommons.org/ns#"
   xmlns:rdf="http://www.w3.org/1999/02/22-rdf-syntax-ns#"
   xmlns:svg="http://www.w3.org/2000/svg"
   xmlns="http://www.w3.org/2000/svg"
   xmlns:sodipodi="http://sodipodi.sourceforge.net/DTD/sodipodi-0.dtd"
   xmlns:inkscape="http://www.inkscape.org/namespaces/inkscape"
   inkscape:export-ydpi="142.08"
   inkscape:export-xdpi="142.08"
   inkscape:export-filename="/home/nathan/Programming/rust/stem-club-site/web/static/img/logo-v2.png"
   inkscape:version="1.0 (1.0+r73+1)"
   sodipodi:docname="logo-inkscape-v2.svg"
   viewBox="0 0 405.40261 405.40261"
   height="405.40262"
   width="405.40262"
   id="svg82"
   version="1.1">
  <metadata
     id="metadata88">
    <rdf:RDF>
      <cc:Work
         rdf:about="">
        <dc:format>image/svg+xml</dc:format>
        <dc:type
           rdf:resource="http://purl.org/dc/dcmitype/StillImage" />
        <dc:title></dc:title>
      </cc:Work>
    </rdf:RDF>
  </metadata>
  <defs
     id="defs86" />
  <sodipodi:namedview
     fit-margin-bottom="0"
     fit-margin-right="0"
     fit-margin-left="0"
     fit-margin-top="0"
     inkscape:current-layer="layer6"
     inkscape:window-maximized="1"
     inkscape:window-y="648"
     inkscape:window-x="1920"
     inkscape:cy="205.15751"
     inkscape:cx="202.70131"
     inkscape:zoom="2.3581495"
     showgrid="false"
     id="namedview84"
     inkscape:window-height="849"
     inkscape:window-width="1594"
     inkscape:pageshadow="2"
     inkscape:pageopacity="0"
     guidetolerance="10"
     gridtolerance="10"
     objecttolerance="10"
     borderopacity="1"
     inkscape:document-rotation="0"
     bordercolor="#666666"
     pagecolor="#ffffff" />
  <g
     transform="translate(26.486646,12.952251)"
     inkscape:groupmode="layer"
     id="layer6"
     inkscape:label="Gear Shadow_v2">
    <path
       d="m 167.32538,-3.495421 c -6.91388,0.0074 -23.76098,0.091649 -23.76098,0.091649 -17.36362,4.394293 0,-1.856e-4 -17.36362,4.394293 V 44.068098 C 114.50562,47.595851 103.26176,52.4937 92.699796,58.66119 L 79.354406,23.557324 61.990396,27.951801 C 38.688028,43.169132 18.900142,63.24819 3.9641245,86.831916 L 34.871283,117.73907 c -5.793164,10.3992 -10.39299,21.42857 -13.710737,32.87534 l -25.8961319,-4.39446 -17.3640101,4.39446 c -2.916768,13.58102 -4.387432,27.43667 -4.387047,41.33189 2.43e-4,13.89528 1.471547,27.75092 4.388955,41.33188 h 41.782566 c 3.038752,12.08582 7.49387,23.76462 13.271463,34.79028 L 3.9641245,297.06067 C 18.900142,320.6444 38.688028,340.72346 61.990396,355.94078 l 17.36401,-4.39446 9.939576,-22.90912 c 11.533748,7.13638 23.940128,12.731 36.906798,16.64306 v 37.62181 c 13.57805,2.98209 27.43486,4.48603 41.33187,4.48594 13.89703,9e-5 27.75383,-1.50385 41.33188,-4.48594 l 17.36429,-4.52361 c -9.90503,-38.44312 2.75729,-46.2783 22.11542,-47.16643 l 24.72877,24.72875 17.36401,-4.39476 c 15.71417,-54.56317 21.58847,-80.5915 31.8311,-118.26784 H 357.163 l 17.36382,-4.39441 C 316.23714,147.5675 322.92017,75.212611 290.43897,23.555164 L 273.07491,27.9499 244.84334,56.181468 C 208.94136,42.910224 208.86453,40.298282 208.86453,0.9905197 195.28648,-1.99157 181.42968,-3.4955143 167.53265,-3.495421 Z"
       style="fill:#000000;fill-opacity:1;stroke:none;stroke-width:26.6433;stroke-linecap:round;stroke-linejoin:round;stroke-miterlimit:4;stroke-dasharray:none"
       id="path1227"
       sodipodi:nodetypes="ssccccccccccccccccccccccccccccccccccs" />
  </g>
  <g
     transform="translate(26.486646,12.952251)"
     inkscape:groupmode="layer"
     id="layer4"
     inkscape:label="Gear_v2">
    <path
       id="rect1148"
       style="fill:#dbdbdb;fill-opacity:1;stroke:none;stroke-width:26.6433;stroke-linecap:round;stroke-linejoin:round;stroke-miterlimit:4;stroke-dasharray:none"
       d="m 184.68939,-7.8898973 c -13.82773,0.01482 -27.61464,1.518682 -41.12499,4.4859396 l 3.9e-4,43.0775787 c -11.69517,3.527753 -22.93902,8.425601 -33.50098,14.593093 L 79.354406,23.557324 C 56.052034,38.774654 36.264146,58.853713 21.328127,82.43744 l 30.907158,30.90716 c -5.793165,10.39919 -10.39299,21.42857 -13.710736,32.87535 H -4.7355859 c -2.9167704,13.58102 -4.3874378,27.43666 -4.3870551,41.33188 2.437e-4,13.89529 1.4715489,27.75093 4.3889583,41.33188 H 37.048885 c 3.038752,12.08583 7.493871,23.76463 13.271461,34.79029 l -28.992219,28.99221 c 14.936019,23.58372 34.723907,43.66278 58.026279,58.88011 l 27.303584,-27.30358 c 11.53376,7.13638 23.94013,12.731 36.9068,16.64305 v 37.62182 c 13.57805,2.98209 27.43486,4.48603 41.33187,4.48594 13.89703,9e-5 27.75411,-1.50358 41.33216,-4.48567 l -2.7e-4,-35.71666 c 13.82204,-3.48427 27.10533,-8.85874 39.4797,-15.97367 l 24.72877,24.72847 c 23.30237,-15.21733 43.09026,-35.29609 58.02628,-58.87981 l -24.5329,-24.5329 c 6.96592,-12.31062 12.24767,-25.51338 15.70173,-39.2496 l 34.89469,6e-5 c 2.91742,-13.58096 4.3889,-27.43665 4.38915,-41.33194 -2.5e-4,-13.89528 -1.47155,-27.75093 -4.38896,-41.33188 h -36.37054 c -3.78772,-13.06958 -9.24477,-25.58814 -16.23419,-37.24149 L 348.46519,82.435538 C 333.52919,58.851811 313.74134,38.772494 290.43897,23.555164 L 262.20735,51.786991 C 250.83607,45.633261 238.75085,40.924366 226.22855,37.76819 V -3.4039577 C 212.6505,-6.3860473 198.79369,-7.8899903 184.89666,-7.8898973 Z"
       sodipodi:nodetypes="ccccccccccccccccccccccccccccccccccccsc" />
  </g>
  <g
     style="display:inline"
     transform="translate(-96.977534,382.97467)"
     inkscape:label="Letters Shadow"
     id="layer5"
     inkscape:groupmode="layer">
    <path
       inkscape:connector-curvature="0"
       d="m 265.56242,-301.63165 c -21.10273,0 -37.46546,4.73847 -49.08984,14.2168 -11.62439,9.47835 -17.4375,22.75704 -17.4375,39.83593 0,13.68101 3.75645,24.14384 11.26758,31.38672 7.60057,7.24289 20.29755,12.56304 38.0918,15.96094 l 24.67968,4.82813 c 0.0135,0.003 0.0256,0.005 0.0391,0.008 -2.86702,3.81412 -5.37227,7.9602 -7.51171,12.4414 -5.1331,10.76257 -7.75074,22.65674 -7.86719,35.67774 -6.31676,-1.18217 -11.57774,-3.31767 -15.77734,-6.41211 -6.70637,-5.00742 -10.37408,-12.20677 -11,-21.5957 h -35.14063 c 1.07301,18.77784 7.86816,33.17461 20.38672,43.18945 11.13258,8.82654 26.2017,13.71808 45.18359,14.69531 0.45906,1.92398 0.95048,3.86127 1.4961,5.82422 7.61687,27.402789 20.5917,47.198639 38.92578,59.384769 18.30998,12.09941 39.34483,14.84668 63.10547,8.24218 21.15912,-5.88138 36.73892,-16.37773 46.73828,-31.48828 9.97526,-15.197265 12.81561,-32.708369 8.51953,-52.533199 l -34.3418,9.54492 c 1.9965,11.21568 0.53088,20.731454 -4.39648,28.546874 -4.92737,7.815425 -12.85287,13.242195 -23.7793,16.279295 -13.52796,3.76023 -25.55448,1.49787 -36.07812,-6.78711 -10.42456,-8.366525 -18.22558,-21.825429 -23.40821,-40.369139 9.18774,-2.50155 17.05879,-6.32027 23.59375,-11.47461 12.78682,-10.10427 19.18164,-24.0968 19.18164,-41.98046 0,-8.11441 -1.2999,-15.16489 -3.87695,-21.16797 0.53304,-0.0215 1.0602,-0.0337 1.58203,-0.0332 4.10483,-0.02 7.69251,0.61857 10.76172,1.91407 3.06921,1.29548 5.74836,2.69851 8.03711,4.21093 2.26464,1.42572 4.34548,3.37043 6.24414,5.83203 1.87455,2.3749 3.23281,4.23812 4.07617,5.5918 0.93008,1.32958 1.90198,2.97484 2.91406,4.93555 l 33.5586,-9.32813 c -6.72888,-18.4947 -18.0472,-31.32288 -33.95703,-38.48437 -15.90984,-7.16149 -33.96666,-7.93459 -54.17188,-2.31836 -3.4972,0.97208 -6.83813,2.08912 -10.02929,3.3418 -3.64018,-1.12544 -7.57492,-2.0984 -11.81641,-2.91407 l -27.49609,-5.36523 c -12.96566,-2.59314 -21.77212,-5.45435 -26.42188,-8.58399 -4.64974,-3.12964 -6.97461,-7.87004 -6.97461,-14.21874 0,-6.70636 2.72713,-12.02653 8.18164,-15.96094 5.54394,-3.93441 12.96417,-5.90235 22.26367,-5.90235 11.53496,0 20.43212,2.3702 26.69141,7.10938 6.25927,4.64975 9.6588,11.49023 10.19531,20.52148 h 33.79883 c 0,-6.61695 -0.80453,-12.69629 -2.41406,-18.24023 -1.60953,-5.54394 -3.75495,-10.239 -6.4375,-14.08399 -2.68254,-3.84497 -5.94604,-7.24255 -9.79102,-10.19335 -3.75557,-2.9508 -7.64609,-5.27566 -11.66992,-6.97461 -4.02382,-1.78836 -8.40536,-3.21996 -13.14453,-4.29297 -4.64974,-1.07302 -9.03129,-1.78881 -13.14453,-2.14649 -4.02382,-0.44708 -8.13719,-0.66992 -12.33985,-0.66992 z m 38.42383,121.80469 c 1.47357,2.90695 2.2168,6.29717 2.2168,10.17773 0,7.3323 -3.17474,13.09811 -9.52344,17.30078 -0.81679,0.52919 -1.67265,1.02327 -2.56641,1.48438 0.27198,-6.36801 1.40062,-12.22782 3.41211,-17.5625 1.65183,-4.31178 3.81288,-8.10346 6.46094,-11.40039 z"
       style="font-size:192px;line-height:1.25;font-family:Rasheeq;-inkscape-font-specification:Rasheeq;letter-spacing:0px;word-spacing:0px;display:inline;opacity:1;fill:#000000;fill-opacity:0.581815;stroke-width:1.25745;stop-opacity:1"
       id="path1406-4" />
  </g>
  <g
     transform="translate(-96.977534,382.97467)"
     style="display:inline"
     inkscape:label="Letters"
     id="layer3"
     inkscape:groupmode="layer">
    <path
       sodipodi:nodetypes="cccccsssccccsscccscscccccccc"
       style="font-size:192px;line-height:1.25;font-family:Rasheeq;-inkscape-font-specification:Rasheeq;letter-spacing:0px;word-spacing:0px;opacity:1;fill:#3d72ff;fill-opacity:1;fill-rule:nonzero;stroke:none;stroke-width:1.25745;stroke-opacity:1;stop-opacity:1"
       d="m 314.20251,-179.65044 c 0,-7.15347 -2.50371,-12.6527 -7.51114,-16.49768 -5.00743,-3.84499 -13.54687,-6.92992 -25.61835,-9.2548 l -24.67946,-4.82859 c -17.79424,-3.3979 -30.49163,-8.71829 -38.0922,-15.96118 -7.51113,-7.24288 -11.2667,-17.70482 -11.2667,-31.38583 0,-17.07889 5.81218,-30.35751 17.43657,-39.83586 11.62438,-9.47833 27.98793,-14.2175 49.09066,-14.2175 4.20266,0 8.3159,0.22355 12.33972,0.67063 4.11324,0.35768 8.49475,1.07303 13.14449,2.14605 4.73917,1.07301 9.12068,2.50371 13.1445,4.29207 4.02383,1.69895 7.91352,4.02383 11.66909,6.97463 3.84498,2.95081 7.10876,6.34871 9.7913,10.19368 2.68255,3.84499 4.82859,8.53945 6.43812,14.08339 1.60953,5.54394 2.41429,11.62439 2.41429,18.24134 h -33.80012 c -0.53651,-9.03125 -3.93441,-15.87175 -10.19368,-20.5215 -6.25929,-4.73918 -15.15641,-7.10876 -26.69137,-7.10876 -9.2995,0 -16.72123,1.9672 -22.26517,5.90161 -5.45451,3.93441 -8.18177,9.2548 -8.18177,15.96116 0,6.34871 2.32488,11.08788 6.97462,14.21752 4.64976,3.12964 13.45747,5.99102 26.42313,8.58416 l 27.49612,5.3651 c 16.27414,3.12964 28.12207,8.53946 35.54379,16.22942 7.42171,7.68997 11.13257,18.42018 11.13257,32.1906 l -0.97786,3.99548 -32.75959,3.49786 z"
       id="path1406"
       inkscape:connector-curvature="0" />
    <g
       transform="matrix(1.2194677,-0.33896276,0.33896276,1.2194677,-43.289017,131.39583)"
       style="font-size:192px;line-height:1.25;font-family:Rasheeq;-inkscape-font-specification:Rasheeq;letter-spacing:0px;word-spacing:0px;fill:#43a83c;fill-opacity:1"
       id="text1348-7"
       aria-label="C">
      <path
         inkscape:connector-curvature="0"
         id="path1389"
         style="fill:#43a83c;fill-opacity:1"
         d="m 387.71715,-149.98426 q -0.53333,-2.56 -1.17333,-4.37334 -0.53333,-1.81333 -1.92,-5.12 -1.38667,-3.41333 -3.52,-5.76 -2.13333,-2.45333 -5.22667,-4.90666 -3.09333,-2.45334 -7.78666,-3.73334 -4.58667,-1.28 -10.34667,-1.28 -16.96,0 -26.66667,13.12 -9.6,13.12 -9.6,36.26667 0,22.93333 9.28,35.839998 9.38667,12.8 26.02667,12.8 13.44,0 21.54667,-7.36 8.10666,-7.36 9.38666,-20.799998 h 28.16 q -1.38666,23.999998 -17.6,38.186665 -16.21333,14.08 -42.24,14.08 -29.22666,0 -46.29333,-19.626667 -17.06667,-19.733333 -17.06667,-53.439998 0,-34.02667 17.17334,-53.76 17.28,-19.84 46.93333,-19.84 24.85333,0 40.74667,13.22667 15.89333,13.22666 17.70666,36.48 z" />
    </g>
    <path
       inkscape:connector-curvature="0"
       id="path1392"
       d="m 348.94152,-184.21078 c 0,17.88366 -6.3934,31.87763 -19.18022,41.9819 -12.69741,10.01485 -30.40223,15.02227 -53.11448,15.02227 -22.444,0 -39.92528,-4.96272 -52.44385,-14.88815 -12.51856,-10.01484 -19.31436,-24.4112 -20.38737,-43.18904 h 35.1414 c 0.62592,9.38893 4.29207,16.5871 10.99844,21.59452 6.7958,5.00742 16.36357,7.51114 28.70329,7.51114 10.99846,0 19.67202,-2.05662 26.02073,-6.16986 6.3487,-4.20267 9.52305,-9.97014 9.52305,-17.30244 z"
       style="font-size:192px;line-height:1.25;font-family:Rasheeq;-inkscape-font-specification:Rasheeq;letter-spacing:0px;word-spacing:0px;opacity:1;fill:#3d72ff;fill-opacity:1;stroke:none;stroke-width:1.25745;stroke-opacity:1;stop-opacity:1"
       sodipodi:nodetypes="ccsccccsccc" />
  </g>
</svg>
